# xmcd
#
# Track frame offsets:
#	150
#	21007
#	37742
#	56025
#	71907
#	90654
#	109915
#	129490
#	146415
#	163990
#	183034
#	202307
#
# Disc length: 2944 seconds
#
# Revision: 0
# Processed by: cddbd v1.4PL0 Copyright (c) Steve Scherf et al.
# Submitted via: EasyCDDAExtractor 4.6.9.1
#
DISCID=ab0b7e0c
DTITLE=이지훈 - 1집
DYEAR=1996
DGENRE=Ballad
TTITLE0=왜 하늘은...
TTITLE1=내여자가 바람을 펴
TTITLE2=산타 바이러스
TTITLE3=퍼퓸
TTITLE4=in 1978
TTITLE5=나만의 신부
TTITLE6=내게서 널 지운다면
TTITLE7=daddy be cool
TTITLE8=무제
TTITLE9=오아시스
TTITLE10=baby jane(remake)
TTITLE11=in 1978(이별예감)
EXTD=
EXTT0=
EXTT1=
EXTT2=
EXTT3=
EXTT4=
EXTT5=
EXTT6=
EXTT7=
EXTT8=
EXTT9=
EXTT10=
EXTT11=
PLAYORDER=
